<?xml version="1.0" encoding="UTF-8" standalone="no"?>
<svg
   xmlns:dc="http://purl.org/dc/elements/1.1/"
   xmlns:cc="http://creativecommons.org/ns#"
   xmlns:rdf="http://www.w3.org/1999/02/22-rdf-syntax-ns#"
   xmlns:svg="http://www.w3.org/2000/svg"
   xmlns="http://www.w3.org/2000/svg"
   xmlns:sodipodi="http://sodipodi.sourceforge.net/DTD/sodipodi-0.dtd"
   xmlns:inkscape="http://www.inkscape.org/namespaces/inkscape"
   version="1.1"
   x="0px"
   y="0px"
   viewBox="0 0 50 50.000002"
   enable-background="new 0 0 595 842"
   xml:space="preserve"
   id="svg2"
   inkscape:version="0.91 r13725"
   sodipodi:docname="credit_card.svg"
   width="50"
   height="50"><metadata
     id="metadata14"><rdf:RDF><cc:Work
         rdf:about=""><dc:format>image/svg+xml</dc:format><dc:type
           rdf:resource="http://purl.org/dc/dcmitype/StillImage" /><dc:title></dc:title></cc:Work></rdf:RDF></metadata><defs
     id="defs12" /><sodipodi:namedview
     pagecolor="#ffffff"
     bordercolor="#666666"
     borderopacity="1"
     objecttolerance="10"
     gridtolerance="10"
     guidetolerance="10"
     inkscape:pageopacity="0"
     inkscape:pageshadow="2"
     inkscape:window-width="1920"
     inkscape:window-height="1001"
     id="namedview10"
     showgrid="false"
     inkscape:zoom="5.4413333"
     inkscape:cx="40.385132"
     inkscape:cy="-4.3713229"
     inkscape:window-x="-9"
     inkscape:window-y="-9"
     inkscape:window-maximized="1"
     inkscape:current-layer="svg2" /><path
     style="clip-rule:evenodd;fill:#000000;fill-rule:evenodd"
     d="M 2.7166599,16.028165 39.220334,7.7495564 38.714483,5.5182649 C 38.573938,4.8831526 37.933313,4.4841371 37.303824,4.6246183 L 3.0931824,12.330047 c -0.6350974,0.140536 -1.0341365,0.775648 -0.8936722,1.410715 0.1741986,0.758698 0.3428697,1.528705 0.5171497,2.287403 l 0,0 z M 2.4131331,10.306766 37.056548,2.511425 c 1.652327,-0.3709012 3.299044,0.6688044 3.670039,2.321194 l 3.630696,16.04589 -2.169394,0 -1.6468,-7.267009 -36.5037548,8.278645 2.2593796,9.964745 0.202324,0.882428 c 0.078686,0.354105 0.4327734,0.58448 0.7924696,0.500164 l 0.2697112,-0.06182 0,2.124457 -0.039343,0.01173 C 6.1505594,35.620952 4.784852,34.749833 4.4701077,33.384128 L 0.08067618,13.982924 c -0.1854975,-0.826226 -0.050561,-1.601766 0.3990393,-2.321149 0.4495999,-0.719428 1.10721392,-1.169067 1.93333642,-1.35454 l 0,0 z m 8.9924039,11.15059 c -1.6916688,0 -3.068675,1.382655 -3.068675,3.07436 l 0,19.963254 c 0,1.691659 1.3770062,3.068673 3.068675,3.068673 l 35.520261,0 c 1.691669,0 3.074203,-1.382601 3.074203,-3.068673 l 0,-19.963254 c 0,-1.691705 -1.382534,-3.07436 -3.074203,-3.07436 l -35.520261,0 0,0 z m 34.772744,8.936295 c 0,-1.354496 0,-2.708937 0,-4.063486 0,-0.264158 -0.208015,-0.472059 -0.472117,-0.472059 -3.029333,0 -6.058665,0 -9.087998,0 -0.258575,0 -0.472117,0.213533 -0.472117,0.472059 0,1.354549 0,2.70899 0,4.063486 0,0.258579 0.213542,0.472112 0.472117,0.472112 3.029333,0 6.058665,0 9.087998,0 0.252885,0 0.472117,-0.207955 0.472117,-0.472112 l 0,0 z m -6.699372,12.319666 c -0.264184,0 -0.477807,-0.213587 -0.477807,-0.472121 l 0,-0.944171 c 0,-0.25858 0.213623,-0.472158 0.477807,-0.472158 l 6.221565,0 c 0.258575,0 0.472116,0.213578 0.472116,0.472158 l 0,0.944171 c 0,0.258534 -0.213541,0.472121 -0.472116,0.472121 l -6.221565,0 0,0 z m -8.68335,0 c -0.258575,0 -0.472116,-0.213587 -0.472116,-0.472121 l 0,-0.938594 c 0,-0.264157 0.213541,-0.472058 0.472116,-0.472058 l 6.227255,0 c 0.258493,0 0.472116,0.213533 0.472116,0.472058 l 0,0.938594 c 0,0.258534 -0.213623,0.472121 -0.472116,0.472121 l -6.227255,0 0,0 z m -8.677822,0 c -0.258494,0 -0.472035,-0.213587 -0.472035,-0.472121 l 0,-0.938594 c 0,-0.264157 0.213541,-0.472058 0.472035,-0.472058 l 6.227417,0 c 0.258412,0 0.472036,0.213533 0.472036,0.472058 l 0,0.938594 c 0,0.258534 -0.213624,0.472121 -0.472036,0.472121 l -6.227417,0 0,0 z m -8.67766,0 c -0.258494,0 -0.472117,-0.213587 -0.472117,-0.472121 l 0,-0.938594 c 0,-0.264157 0.213623,-0.472058 0.472117,-0.472058 l 6.227336,0 c 0.258493,0 0.472035,0.213533 0.472035,0.472058 l 0,0.938594 c 0,0.258534 -0.213542,0.472121 -0.472035,0.472121 l -6.227336,0 z"
     id="path4"
     inkscape:connector-curvature="0" /></svg>