<?xml version="1.0" encoding="UTF-8" standalone="no"?>
<!-- Generator: Adobe Illustrator 19.0.0, SVG Export Plug-In . SVG Version: 6.00 Build 0)  -->

<svg
   xmlns:dc="http://purl.org/dc/elements/1.1/"
   xmlns:cc="http://creativecommons.org/ns#"
   xmlns:rdf="http://www.w3.org/1999/02/22-rdf-syntax-ns#"
   xmlns:svg="http://www.w3.org/2000/svg"
   xmlns="http://www.w3.org/2000/svg"
   xmlns:sodipodi="http://sodipodi.sourceforge.net/DTD/sodipodi-0.dtd"
   xmlns:inkscape="http://www.inkscape.org/namespaces/inkscape"
   version="1.1"
   id="Capa_1"
   x="0px"
   y="0px"
   viewBox="0 0 512.02 512.02"
   style="enable-background:new 0 0 512.02 512.02;"
   xml:space="preserve"
   width="512px"
   height="512px"
   sodipodi:docname="logo.svg"
   inkscape:version="0.92.2 2405546, 2018-03-11"><metadata
   id="metadata73"><rdf:RDF><cc:Work
       rdf:about=""><dc:format>image/svg+xml</dc:format><dc:type
         rdf:resource="http://purl.org/dc/dcmitype/StillImage" /></cc:Work></rdf:RDF></metadata><defs
   id="defs71" /><sodipodi:namedview
   pagecolor="#ffffff"
   bordercolor="#666666"
   borderopacity="1"
   objecttolerance="10"
   gridtolerance="10"
   guidetolerance="10"
   inkscape:pageopacity="0"
   inkscape:pageshadow="2"
   inkscape:window-width="1116"
   inkscape:window-height="1030"
   id="namedview69"
   showgrid="false"
   inkscape:zoom="0.4609375"
   inkscape:cx="271.60318"
   inkscape:cy="256"
   inkscape:window-x="802"
   inkscape:window-y="24"
   inkscape:window-maximized="0"
   inkscape:current-layer="Capa_1" />
<g
   id="g6">
	<g
   id="g4">
		<path
   d="M510.434,453.066c-1.963-3.136-5.397-5.056-9.088-5.056H10.679c-3.691,0-7.125,1.92-9.109,5.077    c-1.92,3.136-2.091,7.061-0.448,10.368c15.019,29.952,45.12,48.555,78.592,48.555h352.597c33.472,0,63.573-18.603,78.571-48.576    C512.546,460.127,512.375,456.202,510.434,453.066z M432.29,490.677H79.714c-18.965,0-36.48-7.872-48.875-21.333h450.325    C468.77,482.805,451.255,490.677,432.29,490.677z"
   fill="#546e7a"
   id="path2" />
	</g>
</g>
<g
   id="g12">
	<g
   id="g10">
		<path
   d="M255.991,308.639c-0.384-5.867-5.12-10.688-11.349-9.941c-68.245,4.523-126.933,49.045-149.589,113.451    c-1.963,5.568,0.96,11.648,6.528,13.611c1.173,0.405,2.368,0.597,3.541,0.597c4.395,0,8.512-2.752,10.048-7.125    c19.819-56.341,71.168-95.296,130.88-99.243C251.938,319.605,256.397,314.506,255.991,308.639z"
   fill="#546e7a"
   id="path8" />
	</g>
</g>
<g
   id="g18">
	<g
   id="g16">
		<path
   d="M256.013,213.343c-17.643,0-32,14.357-32,32c0,17.643,14.357,32,32,32s32-14.357,32-32    C288.013,227.701,273.655,213.343,256.013,213.343z M256.013,256.01c-5.867,0-10.667-4.8-10.667-10.667    c0-5.867,4.8-10.667,10.667-10.667s10.667,4.8,10.667,10.667C266.679,251.21,261.879,256.01,256.013,256.01z"
   fill="#546e7a"
   id="path14" />
	</g>
</g>
<g
   id="g24">
	<g
   id="g22">
		<path
   d="M469.047,458.122c-2.24-43.157-17.515-84.288-44.203-118.869c-3.584-4.672-10.325-5.525-14.955-1.92    c-4.672,3.584-5.525,10.283-1.92,14.955c21.675,28.117,34.987,61.013,38.869,95.723l-381.675,0.235    c10.517-96.704,92.267-170.901,190.848-170.901c19.456,0,38.869,3.008,57.707,8.939c5.632,1.771,11.627-1.344,13.376-6.955    c1.771-5.632-1.323-11.605-6.955-13.376c-20.928-6.613-42.496-9.941-64.128-9.941c-113.728,0-207.317,88.896-213.035,202.368    c-0.149,2.923,0.896,5.76,2.923,7.893c2.005,2.091,4.8,3.307,7.723,3.307l404.779-0.235c2.944,0,5.739-1.216,7.723-3.328    C468.151,463.903,469.218,461.066,469.047,458.122z"
   fill="#546e7a"
   id="path20" />
	</g>
</g>
<g
   id="g30"
   style="fill:#ff9100;fill-opacity:1">
	<g
   id="g28"
   style="fill:#ff9100;fill-opacity:1">
		<path
   d="M394.679,0.01c-64.683,0-117.333,52.651-117.333,117.333c0,61.952,104.555,193.131,108.992,198.656    c2.048,2.539,5.12,4.011,8.341,4.011s6.293-1.472,8.341-3.989c4.437-5.547,108.992-136.725,108.992-198.677    C512.013,52.661,459.362,0.01,394.679,0.01z M394.679,292.042c-32.939-42.795-96-133.291-96-174.699c0-52.928,43.072-96,96-96    s96,43.072,96,96C490.679,158.73,427.618,249.247,394.679,292.042z"
   fill="#546e7a"
   id="path26"
   style="fill:#ff9100;fill-opacity:1" />
	</g>
</g>
<g
   id="g36"
   style="fill:#ff9100;fill-opacity:1">
	<g
   id="g34"
   style="fill:#ff9100;fill-opacity:1">
		<path
   d="M394.679,64.01c-29.419,0-53.333,23.915-53.333,53.333c0,29.419,23.915,53.333,53.333,53.333s53.333-23.915,53.333-53.333    C448.013,87.925,424.098,64.01,394.679,64.01z M394.679,149.343c-17.643,0-32-14.357-32-32c0-17.643,14.357-32,32-32    s32,14.357,32,32C426.679,134.986,412.322,149.343,394.679,149.343z"
   fill="#546e7a"
   id="path32"
   style="fill:#ff9100;fill-opacity:1" />
	</g>
</g>
<g
   id="g38">
</g>
<g
   id="g40">
</g>
<g
   id="g42">
</g>
<g
   id="g44">
</g>
<g
   id="g46">
</g>
<g
   id="g48">
</g>
<g
   id="g50">
</g>
<g
   id="g52">
</g>
<g
   id="g54">
</g>
<g
   id="g56">
</g>
<g
   id="g58">
</g>
<g
   id="g60">
</g>
<g
   id="g62">
</g>
<g
   id="g64">
</g>
<g
   id="g66">
</g>
</svg>