<?xml version="1.0" encoding="UTF-8" standalone="no"?>
<svg
   xmlns:dc="http://purl.org/dc/elements/1.1/"
   xmlns:cc="http://creativecommons.org/ns#"
   xmlns:rdf="http://www.w3.org/1999/02/22-rdf-syntax-ns#"
   xmlns:svg="http://www.w3.org/2000/svg"
   xmlns="http://www.w3.org/2000/svg"
   xmlns:sodipodi="http://sodipodi.sourceforge.net/DTD/sodipodi-0.dtd"
   xmlns:inkscape="http://www.inkscape.org/namespaces/inkscape"
   version="1.1"
   x="0px"
   y="0px"
   viewBox="0 0 50 50"
   enable-background="new 0 0 100 100"
   xml:space="preserve"
   id="svg4312"
   inkscape:version="0.91 r13725"
   sodipodi:docname="noun_16143_cc.svg"
   width="50"
   height="50"><metadata
     id="metadata4428"><rdf:RDF><cc:Work
         rdf:about=""><dc:format>image/svg+xml</dc:format><dc:type
           rdf:resource="http://purl.org/dc/dcmitype/StillImage" /><dc:title></dc:title></cc:Work></rdf:RDF></metadata><defs
     id="defs4426" /><sodipodi:namedview
     pagecolor="#ffffff"
     bordercolor="#666666"
     borderopacity="1"
     objecttolerance="10"
     gridtolerance="10"
     guidetolerance="10"
     inkscape:pageopacity="0"
     inkscape:pageshadow="2"
     inkscape:window-width="1920"
     inkscape:window-height="1001"
     id="namedview4424"
     showgrid="false"
     inkscape:zoom="5.984"
     inkscape:cx="44.406797"
     inkscape:cy="35.762032"
     inkscape:window-x="-9"
     inkscape:window-y="-9"
     inkscape:window-maximized="1"
     inkscape:current-layer="svg4312" /><g
     id="g4430"
     transform="matrix(0.77808901,0,0,0.77808901,-13.904321,-13.90445)"><path
       id="path4414"
       d="m 54.541,60.849 c -0.791,0 -1.525,-0.475 -1.957,-1.137 -1.67,-2.224 -13.708,-18.513 -13.708,-26.282 0,-8.578 6.981,-15.56 15.565,-15.56 8.578,0 15.557,6.98 15.557,15.56 0,5.947 -11.32,27.419 -15.457,27.419 z m -0.1,-38.479 c -6.104,0 -11.065,4.96 -11.065,11.06 0,4.352 6.479,14.824 11.396,21.659 3.42,-4.6 10.727,-16.945 10.727,-21.659 -10e-4,-6.1 -4.961,-11.06 -11.058,-11.06 z"
       inkscape:connector-curvature="0" /><path
       id="path4416"
       d="m 54.441,40.086 c -3.721,0 -6.75,-3.029 -6.75,-6.75 0,-3.721 3.029,-6.75 6.75,-6.75 3.721,0 6.75,3.029 6.75,6.75 0,3.721 -3.029,6.75 -6.75,6.75 z m 0,-9 c -1.239,0 -2.25,1.011 -2.25,2.25 0,1.239 1.011,2.25 2.25,2.25 1.238,0 2.25,-1.011 2.25,-2.25 0,-1.239 -1.009,-2.25 -2.25,-2.25 z"
       inkscape:connector-curvature="0" /><path
       id="path4418"
       d="m 47.65,82.13 c -0.127,0 -0.256,-0.012 -0.381,-0.032 L 25.203,78.31 C 24.096,78.121 23.299,77.144 23.334,76.023 L 23.879,58.836 20.551,41.523 c -0.146,-0.763 0.108,-1.548 0.68,-2.074 0.568,-0.53 1.365,-0.728 2.121,-0.521 l 14.801,4.025 5.121,-2.244 c 1.129,-0.489 2.461,0.021 2.965,1.16 0.498,1.137 -0.021,2.464 -1.159,2.965 l -5.849,2.561 c -0.472,0.202 -0.992,0.243 -1.494,0.108 l -12.084,-3.287 2.691,14.02 c 0.032,0.164 0.045,0.331 0.041,0.495 l -0.488,15.478 19.266,3.308 12.372,-8.067 c 0.551,-0.36 1.222,-0.463 1.854,-0.278 l 13.459,3.891 -0.64,-13.663 0.703,-13.598 -9.7,-3.835 c -1.156,-0.457 -1.723,-1.764 -1.266,-2.918 0.453,-1.157 1.771,-1.726 2.918,-1.266 l 11.203,4.43 c 0.898,0.354 1.471,1.245 1.42,2.209 l -0.784,14.988 0.784,16.582 c 0.035,0.727 -0.283,1.421 -0.853,1.872 -0.567,0.444 -1.317,0.598 -2.019,0.396 L 61.129,73.78 48.88,81.766 c -0.368,0.238 -0.796,0.364 -1.23,0.364 z"
       inkscape:connector-curvature="0" /></g></svg>