<?xml version="1.0" encoding="UTF-8" standalone="no"?>
<svg
   xmlns:dc="http://purl.org/dc/elements/1.1/"
   xmlns:cc="http://creativecommons.org/ns#"
   xmlns:rdf="http://www.w3.org/1999/02/22-rdf-syntax-ns#"
   xmlns:svg="http://www.w3.org/2000/svg"
   xmlns="http://www.w3.org/2000/svg"
   xmlns:sodipodi="http://sodipodi.sourceforge.net/DTD/sodipodi-0.dtd"
   xmlns:inkscape="http://www.inkscape.org/namespaces/inkscape"
   version="1.1"
   x="0px"
   y="0px"
   viewBox="0 0 50 50"
   enable-background="new 0 0 100 100"
   xml:space="preserve"
   id="svg2"
   inkscape:version="0.91 r13725"
   sodipodi:docname="cutlery.svg"
   width="50"
   height="50"><metadata
     id="metadata16"><rdf:RDF><cc:Work
         rdf:about=""><dc:format>image/svg+xml</dc:format><dc:type
           rdf:resource="http://purl.org/dc/dcmitype/StillImage" /><dc:title></dc:title></cc:Work></rdf:RDF></metadata><defs
     id="defs14" /><sodipodi:namedview
     pagecolor="#ffffff"
     bordercolor="#666666"
     borderopacity="1"
     objecttolerance="10"
     gridtolerance="10"
     guidetolerance="10"
     inkscape:pageopacity="0"
     inkscape:pageshadow="2"
     inkscape:window-width="1920"
     inkscape:window-height="1001"
     id="namedview12"
     showgrid="false"
     inkscape:zoom="7.552"
     inkscape:cx="57.560911"
     inkscape:cy="22.066012"
     inkscape:window-x="-9"
     inkscape:window-y="-9"
     inkscape:window-maximized="1"
     inkscape:current-layer="svg2" /><g
     id="g4"
     transform="matrix(0.55555556,0,0,0.55555556,-1.3888891,-2.777778)"><path
       d="m 36,95 c -3.3,0 -6,-2.7 -6,-6 L 30,37.2 C 26.9,35.2 25,31.8 25,28 L 25,7 c 0,-1.1 0.9,-2 2,-2 1.1,0 2,0.9 2,2 l 0,21 c 0,2.7 1.5,5.1 3.9,6.3 0.7,0.3 1.1,1 1.1,1.8 L 34,89 c 0,1.1 0.9,2 2,2 1.1,0 2,-0.9 2,-2 l 0,-52.9 c 0,-0.8 0.4,-1.5 1.1,-1.8 C 41.5,33.1 43,30.7 43,28 L 43,7 c 0,-1.1 0.9,-2 2,-2 1.1,0 2,0.9 2,2 l 0,21 c 0,3.8 -1.9,7.2 -5,9.2 L 42,89 c 0,3.3 -2.7,6 -6,6 z M 70,89 70,13 C 70,8.6 66.4,5 62,5 57.6,5 54,8.6 54,13 l 0,37 c 0,1.1 0.9,2 2,2 l 2,0 0,37 c 0,3.3 2.7,6 6,6 3.3,0 6,-2.7 6,-6 z M 58,13 c 0,-2.2 1.8,-4 4,-4 2.2,0 4,1.8 4,4 l 0,76 c 0,1.1 -0.9,2 -2,2 -1.1,0 -2,-0.9 -2,-2 l 0,-39 c 0,-1.1 -0.9,-2 -2,-2 l -2,0 0,-35 z M 35,24 35,7 C 35,5.9 34.1,5 33,5 31.9,5 31,5.9 31,7 l 0,17 c 0,1.1 0.9,2 2,2 1.1,0 2,-0.9 2,-2 z m 6,0 0,-17 C 41,5.9 40.1,5 39,5 37.9,5 37,5.9 37,7 l 0,17 c 0,1.1 0.9,2 2,2 1.1,0 2,-0.9 2,-2 z"
       id="path6"
       inkscape:connector-curvature="0" /></g></svg>